G04 #@! TF.GenerationSoftware,KiCad,Pcbnew,5.1.2-f72e74a~84~ubuntu18.04.1*
G04 #@! TF.CreationDate,2019-07-02T23:06:04+08:00*
G04 #@! TF.ProjectId,cs4354-daughterboard,63733433-3534-42d6-9461-756768746572,rev?*
G04 #@! TF.SameCoordinates,Original*
G04 #@! TF.FileFunction,Soldermask,Bot*
G04 #@! TF.FilePolarity,Negative*
%FSLAX46Y46*%
G04 Gerber Fmt 4.6, Leading zero omitted, Abs format (unit mm)*
G04 Created by KiCad (PCBNEW 5.1.2-f72e74a~84~ubuntu18.04.1) date 2019-07-02 23:06:04*
%MOMM*%
%LPD*%
G04 APERTURE LIST*
%ADD10C,0.100000*%
%ADD11C,1.150000*%
%ADD12C,2.500000*%
%ADD13R,1.700000X1.700000*%
%ADD14O,1.700000X1.700000*%
G04 APERTURE END LIST*
D10*
G36*
X133200505Y-67373204D02*
G01*
X133224773Y-67376804D01*
X133248572Y-67382765D01*
X133271671Y-67391030D01*
X133293850Y-67401520D01*
X133314893Y-67414132D01*
X133334599Y-67428747D01*
X133352777Y-67445223D01*
X133369253Y-67463401D01*
X133383868Y-67483107D01*
X133396480Y-67504150D01*
X133406970Y-67526329D01*
X133415235Y-67549428D01*
X133421196Y-67573227D01*
X133424796Y-67597495D01*
X133426000Y-67621999D01*
X133426000Y-68522001D01*
X133424796Y-68546505D01*
X133421196Y-68570773D01*
X133415235Y-68594572D01*
X133406970Y-68617671D01*
X133396480Y-68639850D01*
X133383868Y-68660893D01*
X133369253Y-68680599D01*
X133352777Y-68698777D01*
X133334599Y-68715253D01*
X133314893Y-68729868D01*
X133293850Y-68742480D01*
X133271671Y-68752970D01*
X133248572Y-68761235D01*
X133224773Y-68767196D01*
X133200505Y-68770796D01*
X133176001Y-68772000D01*
X132525999Y-68772000D01*
X132501495Y-68770796D01*
X132477227Y-68767196D01*
X132453428Y-68761235D01*
X132430329Y-68752970D01*
X132408150Y-68742480D01*
X132387107Y-68729868D01*
X132367401Y-68715253D01*
X132349223Y-68698777D01*
X132332747Y-68680599D01*
X132318132Y-68660893D01*
X132305520Y-68639850D01*
X132295030Y-68617671D01*
X132286765Y-68594572D01*
X132280804Y-68570773D01*
X132277204Y-68546505D01*
X132276000Y-68522001D01*
X132276000Y-67621999D01*
X132277204Y-67597495D01*
X132280804Y-67573227D01*
X132286765Y-67549428D01*
X132295030Y-67526329D01*
X132305520Y-67504150D01*
X132318132Y-67483107D01*
X132332747Y-67463401D01*
X132349223Y-67445223D01*
X132367401Y-67428747D01*
X132387107Y-67414132D01*
X132408150Y-67401520D01*
X132430329Y-67391030D01*
X132453428Y-67382765D01*
X132477227Y-67376804D01*
X132501495Y-67373204D01*
X132525999Y-67372000D01*
X133176001Y-67372000D01*
X133200505Y-67373204D01*
X133200505Y-67373204D01*
G37*
D11*
X132851000Y-68072000D03*
D10*
G36*
X131150505Y-67373204D02*
G01*
X131174773Y-67376804D01*
X131198572Y-67382765D01*
X131221671Y-67391030D01*
X131243850Y-67401520D01*
X131264893Y-67414132D01*
X131284599Y-67428747D01*
X131302777Y-67445223D01*
X131319253Y-67463401D01*
X131333868Y-67483107D01*
X131346480Y-67504150D01*
X131356970Y-67526329D01*
X131365235Y-67549428D01*
X131371196Y-67573227D01*
X131374796Y-67597495D01*
X131376000Y-67621999D01*
X131376000Y-68522001D01*
X131374796Y-68546505D01*
X131371196Y-68570773D01*
X131365235Y-68594572D01*
X131356970Y-68617671D01*
X131346480Y-68639850D01*
X131333868Y-68660893D01*
X131319253Y-68680599D01*
X131302777Y-68698777D01*
X131284599Y-68715253D01*
X131264893Y-68729868D01*
X131243850Y-68742480D01*
X131221671Y-68752970D01*
X131198572Y-68761235D01*
X131174773Y-68767196D01*
X131150505Y-68770796D01*
X131126001Y-68772000D01*
X130475999Y-68772000D01*
X130451495Y-68770796D01*
X130427227Y-68767196D01*
X130403428Y-68761235D01*
X130380329Y-68752970D01*
X130358150Y-68742480D01*
X130337107Y-68729868D01*
X130317401Y-68715253D01*
X130299223Y-68698777D01*
X130282747Y-68680599D01*
X130268132Y-68660893D01*
X130255520Y-68639850D01*
X130245030Y-68617671D01*
X130236765Y-68594572D01*
X130230804Y-68570773D01*
X130227204Y-68546505D01*
X130226000Y-68522001D01*
X130226000Y-67621999D01*
X130227204Y-67597495D01*
X130230804Y-67573227D01*
X130236765Y-67549428D01*
X130245030Y-67526329D01*
X130255520Y-67504150D01*
X130268132Y-67483107D01*
X130282747Y-67463401D01*
X130299223Y-67445223D01*
X130317401Y-67428747D01*
X130337107Y-67414132D01*
X130358150Y-67401520D01*
X130380329Y-67391030D01*
X130403428Y-67382765D01*
X130427227Y-67376804D01*
X130451495Y-67373204D01*
X130475999Y-67372000D01*
X131126001Y-67372000D01*
X131150505Y-67373204D01*
X131150505Y-67373204D01*
G37*
D11*
X130801000Y-68072000D03*
D10*
G36*
X133200505Y-64833204D02*
G01*
X133224773Y-64836804D01*
X133248572Y-64842765D01*
X133271671Y-64851030D01*
X133293850Y-64861520D01*
X133314893Y-64874132D01*
X133334599Y-64888747D01*
X133352777Y-64905223D01*
X133369253Y-64923401D01*
X133383868Y-64943107D01*
X133396480Y-64964150D01*
X133406970Y-64986329D01*
X133415235Y-65009428D01*
X133421196Y-65033227D01*
X133424796Y-65057495D01*
X133426000Y-65081999D01*
X133426000Y-65982001D01*
X133424796Y-66006505D01*
X133421196Y-66030773D01*
X133415235Y-66054572D01*
X133406970Y-66077671D01*
X133396480Y-66099850D01*
X133383868Y-66120893D01*
X133369253Y-66140599D01*
X133352777Y-66158777D01*
X133334599Y-66175253D01*
X133314893Y-66189868D01*
X133293850Y-66202480D01*
X133271671Y-66212970D01*
X133248572Y-66221235D01*
X133224773Y-66227196D01*
X133200505Y-66230796D01*
X133176001Y-66232000D01*
X132525999Y-66232000D01*
X132501495Y-66230796D01*
X132477227Y-66227196D01*
X132453428Y-66221235D01*
X132430329Y-66212970D01*
X132408150Y-66202480D01*
X132387107Y-66189868D01*
X132367401Y-66175253D01*
X132349223Y-66158777D01*
X132332747Y-66140599D01*
X132318132Y-66120893D01*
X132305520Y-66099850D01*
X132295030Y-66077671D01*
X132286765Y-66054572D01*
X132280804Y-66030773D01*
X132277204Y-66006505D01*
X132276000Y-65982001D01*
X132276000Y-65081999D01*
X132277204Y-65057495D01*
X132280804Y-65033227D01*
X132286765Y-65009428D01*
X132295030Y-64986329D01*
X132305520Y-64964150D01*
X132318132Y-64943107D01*
X132332747Y-64923401D01*
X132349223Y-64905223D01*
X132367401Y-64888747D01*
X132387107Y-64874132D01*
X132408150Y-64861520D01*
X132430329Y-64851030D01*
X132453428Y-64842765D01*
X132477227Y-64836804D01*
X132501495Y-64833204D01*
X132525999Y-64832000D01*
X133176001Y-64832000D01*
X133200505Y-64833204D01*
X133200505Y-64833204D01*
G37*
D11*
X132851000Y-65532000D03*
D10*
G36*
X131150505Y-64833204D02*
G01*
X131174773Y-64836804D01*
X131198572Y-64842765D01*
X131221671Y-64851030D01*
X131243850Y-64861520D01*
X131264893Y-64874132D01*
X131284599Y-64888747D01*
X131302777Y-64905223D01*
X131319253Y-64923401D01*
X131333868Y-64943107D01*
X131346480Y-64964150D01*
X131356970Y-64986329D01*
X131365235Y-65009428D01*
X131371196Y-65033227D01*
X131374796Y-65057495D01*
X131376000Y-65081999D01*
X131376000Y-65982001D01*
X131374796Y-66006505D01*
X131371196Y-66030773D01*
X131365235Y-66054572D01*
X131356970Y-66077671D01*
X131346480Y-66099850D01*
X131333868Y-66120893D01*
X131319253Y-66140599D01*
X131302777Y-66158777D01*
X131284599Y-66175253D01*
X131264893Y-66189868D01*
X131243850Y-66202480D01*
X131221671Y-66212970D01*
X131198572Y-66221235D01*
X131174773Y-66227196D01*
X131150505Y-66230796D01*
X131126001Y-66232000D01*
X130475999Y-66232000D01*
X130451495Y-66230796D01*
X130427227Y-66227196D01*
X130403428Y-66221235D01*
X130380329Y-66212970D01*
X130358150Y-66202480D01*
X130337107Y-66189868D01*
X130317401Y-66175253D01*
X130299223Y-66158777D01*
X130282747Y-66140599D01*
X130268132Y-66120893D01*
X130255520Y-66099850D01*
X130245030Y-66077671D01*
X130236765Y-66054572D01*
X130230804Y-66030773D01*
X130227204Y-66006505D01*
X130226000Y-65982001D01*
X130226000Y-65081999D01*
X130227204Y-65057495D01*
X130230804Y-65033227D01*
X130236765Y-65009428D01*
X130245030Y-64986329D01*
X130255520Y-64964150D01*
X130268132Y-64943107D01*
X130282747Y-64923401D01*
X130299223Y-64905223D01*
X130317401Y-64888747D01*
X130337107Y-64874132D01*
X130358150Y-64861520D01*
X130380329Y-64851030D01*
X130403428Y-64842765D01*
X130427227Y-64836804D01*
X130451495Y-64833204D01*
X130475999Y-64832000D01*
X131126001Y-64832000D01*
X131150505Y-64833204D01*
X131150505Y-64833204D01*
G37*
D11*
X130801000Y-65532000D03*
D10*
G36*
X133200505Y-62293204D02*
G01*
X133224773Y-62296804D01*
X133248572Y-62302765D01*
X133271671Y-62311030D01*
X133293850Y-62321520D01*
X133314893Y-62334132D01*
X133334599Y-62348747D01*
X133352777Y-62365223D01*
X133369253Y-62383401D01*
X133383868Y-62403107D01*
X133396480Y-62424150D01*
X133406970Y-62446329D01*
X133415235Y-62469428D01*
X133421196Y-62493227D01*
X133424796Y-62517495D01*
X133426000Y-62541999D01*
X133426000Y-63442001D01*
X133424796Y-63466505D01*
X133421196Y-63490773D01*
X133415235Y-63514572D01*
X133406970Y-63537671D01*
X133396480Y-63559850D01*
X133383868Y-63580893D01*
X133369253Y-63600599D01*
X133352777Y-63618777D01*
X133334599Y-63635253D01*
X133314893Y-63649868D01*
X133293850Y-63662480D01*
X133271671Y-63672970D01*
X133248572Y-63681235D01*
X133224773Y-63687196D01*
X133200505Y-63690796D01*
X133176001Y-63692000D01*
X132525999Y-63692000D01*
X132501495Y-63690796D01*
X132477227Y-63687196D01*
X132453428Y-63681235D01*
X132430329Y-63672970D01*
X132408150Y-63662480D01*
X132387107Y-63649868D01*
X132367401Y-63635253D01*
X132349223Y-63618777D01*
X132332747Y-63600599D01*
X132318132Y-63580893D01*
X132305520Y-63559850D01*
X132295030Y-63537671D01*
X132286765Y-63514572D01*
X132280804Y-63490773D01*
X132277204Y-63466505D01*
X132276000Y-63442001D01*
X132276000Y-62541999D01*
X132277204Y-62517495D01*
X132280804Y-62493227D01*
X132286765Y-62469428D01*
X132295030Y-62446329D01*
X132305520Y-62424150D01*
X132318132Y-62403107D01*
X132332747Y-62383401D01*
X132349223Y-62365223D01*
X132367401Y-62348747D01*
X132387107Y-62334132D01*
X132408150Y-62321520D01*
X132430329Y-62311030D01*
X132453428Y-62302765D01*
X132477227Y-62296804D01*
X132501495Y-62293204D01*
X132525999Y-62292000D01*
X133176001Y-62292000D01*
X133200505Y-62293204D01*
X133200505Y-62293204D01*
G37*
D11*
X132851000Y-62992000D03*
D10*
G36*
X131150505Y-62293204D02*
G01*
X131174773Y-62296804D01*
X131198572Y-62302765D01*
X131221671Y-62311030D01*
X131243850Y-62321520D01*
X131264893Y-62334132D01*
X131284599Y-62348747D01*
X131302777Y-62365223D01*
X131319253Y-62383401D01*
X131333868Y-62403107D01*
X131346480Y-62424150D01*
X131356970Y-62446329D01*
X131365235Y-62469428D01*
X131371196Y-62493227D01*
X131374796Y-62517495D01*
X131376000Y-62541999D01*
X131376000Y-63442001D01*
X131374796Y-63466505D01*
X131371196Y-63490773D01*
X131365235Y-63514572D01*
X131356970Y-63537671D01*
X131346480Y-63559850D01*
X131333868Y-63580893D01*
X131319253Y-63600599D01*
X131302777Y-63618777D01*
X131284599Y-63635253D01*
X131264893Y-63649868D01*
X131243850Y-63662480D01*
X131221671Y-63672970D01*
X131198572Y-63681235D01*
X131174773Y-63687196D01*
X131150505Y-63690796D01*
X131126001Y-63692000D01*
X130475999Y-63692000D01*
X130451495Y-63690796D01*
X130427227Y-63687196D01*
X130403428Y-63681235D01*
X130380329Y-63672970D01*
X130358150Y-63662480D01*
X130337107Y-63649868D01*
X130317401Y-63635253D01*
X130299223Y-63618777D01*
X130282747Y-63600599D01*
X130268132Y-63580893D01*
X130255520Y-63559850D01*
X130245030Y-63537671D01*
X130236765Y-63514572D01*
X130230804Y-63490773D01*
X130227204Y-63466505D01*
X130226000Y-63442001D01*
X130226000Y-62541999D01*
X130227204Y-62517495D01*
X130230804Y-62493227D01*
X130236765Y-62469428D01*
X130245030Y-62446329D01*
X130255520Y-62424150D01*
X130268132Y-62403107D01*
X130282747Y-62383401D01*
X130299223Y-62365223D01*
X130317401Y-62348747D01*
X130337107Y-62334132D01*
X130358150Y-62321520D01*
X130380329Y-62311030D01*
X130403428Y-62302765D01*
X130427227Y-62296804D01*
X130451495Y-62293204D01*
X130475999Y-62292000D01*
X131126001Y-62292000D01*
X131150505Y-62293204D01*
X131150505Y-62293204D01*
G37*
D11*
X130801000Y-62992000D03*
D10*
G36*
X133200505Y-59753204D02*
G01*
X133224773Y-59756804D01*
X133248572Y-59762765D01*
X133271671Y-59771030D01*
X133293850Y-59781520D01*
X133314893Y-59794132D01*
X133334599Y-59808747D01*
X133352777Y-59825223D01*
X133369253Y-59843401D01*
X133383868Y-59863107D01*
X133396480Y-59884150D01*
X133406970Y-59906329D01*
X133415235Y-59929428D01*
X133421196Y-59953227D01*
X133424796Y-59977495D01*
X133426000Y-60001999D01*
X133426000Y-60902001D01*
X133424796Y-60926505D01*
X133421196Y-60950773D01*
X133415235Y-60974572D01*
X133406970Y-60997671D01*
X133396480Y-61019850D01*
X133383868Y-61040893D01*
X133369253Y-61060599D01*
X133352777Y-61078777D01*
X133334599Y-61095253D01*
X133314893Y-61109868D01*
X133293850Y-61122480D01*
X133271671Y-61132970D01*
X133248572Y-61141235D01*
X133224773Y-61147196D01*
X133200505Y-61150796D01*
X133176001Y-61152000D01*
X132525999Y-61152000D01*
X132501495Y-61150796D01*
X132477227Y-61147196D01*
X132453428Y-61141235D01*
X132430329Y-61132970D01*
X132408150Y-61122480D01*
X132387107Y-61109868D01*
X132367401Y-61095253D01*
X132349223Y-61078777D01*
X132332747Y-61060599D01*
X132318132Y-61040893D01*
X132305520Y-61019850D01*
X132295030Y-60997671D01*
X132286765Y-60974572D01*
X132280804Y-60950773D01*
X132277204Y-60926505D01*
X132276000Y-60902001D01*
X132276000Y-60001999D01*
X132277204Y-59977495D01*
X132280804Y-59953227D01*
X132286765Y-59929428D01*
X132295030Y-59906329D01*
X132305520Y-59884150D01*
X132318132Y-59863107D01*
X132332747Y-59843401D01*
X132349223Y-59825223D01*
X132367401Y-59808747D01*
X132387107Y-59794132D01*
X132408150Y-59781520D01*
X132430329Y-59771030D01*
X132453428Y-59762765D01*
X132477227Y-59756804D01*
X132501495Y-59753204D01*
X132525999Y-59752000D01*
X133176001Y-59752000D01*
X133200505Y-59753204D01*
X133200505Y-59753204D01*
G37*
D11*
X132851000Y-60452000D03*
D10*
G36*
X131150505Y-59753204D02*
G01*
X131174773Y-59756804D01*
X131198572Y-59762765D01*
X131221671Y-59771030D01*
X131243850Y-59781520D01*
X131264893Y-59794132D01*
X131284599Y-59808747D01*
X131302777Y-59825223D01*
X131319253Y-59843401D01*
X131333868Y-59863107D01*
X131346480Y-59884150D01*
X131356970Y-59906329D01*
X131365235Y-59929428D01*
X131371196Y-59953227D01*
X131374796Y-59977495D01*
X131376000Y-60001999D01*
X131376000Y-60902001D01*
X131374796Y-60926505D01*
X131371196Y-60950773D01*
X131365235Y-60974572D01*
X131356970Y-60997671D01*
X131346480Y-61019850D01*
X131333868Y-61040893D01*
X131319253Y-61060599D01*
X131302777Y-61078777D01*
X131284599Y-61095253D01*
X131264893Y-61109868D01*
X131243850Y-61122480D01*
X131221671Y-61132970D01*
X131198572Y-61141235D01*
X131174773Y-61147196D01*
X131150505Y-61150796D01*
X131126001Y-61152000D01*
X130475999Y-61152000D01*
X130451495Y-61150796D01*
X130427227Y-61147196D01*
X130403428Y-61141235D01*
X130380329Y-61132970D01*
X130358150Y-61122480D01*
X130337107Y-61109868D01*
X130317401Y-61095253D01*
X130299223Y-61078777D01*
X130282747Y-61060599D01*
X130268132Y-61040893D01*
X130255520Y-61019850D01*
X130245030Y-60997671D01*
X130236765Y-60974572D01*
X130230804Y-60950773D01*
X130227204Y-60926505D01*
X130226000Y-60902001D01*
X130226000Y-60001999D01*
X130227204Y-59977495D01*
X130230804Y-59953227D01*
X130236765Y-59929428D01*
X130245030Y-59906329D01*
X130255520Y-59884150D01*
X130268132Y-59863107D01*
X130282747Y-59843401D01*
X130299223Y-59825223D01*
X130317401Y-59808747D01*
X130337107Y-59794132D01*
X130358150Y-59781520D01*
X130380329Y-59771030D01*
X130403428Y-59762765D01*
X130427227Y-59756804D01*
X130451495Y-59753204D01*
X130475999Y-59752000D01*
X131126001Y-59752000D01*
X131150505Y-59753204D01*
X131150505Y-59753204D01*
G37*
D11*
X130801000Y-60452000D03*
D12*
X151511000Y-58547000D03*
X124206000Y-71882000D03*
D13*
X137160000Y-59944000D03*
X142240000Y-59944000D03*
D14*
X148844000Y-69596000D03*
X148844000Y-67056000D03*
X148844000Y-64516000D03*
D13*
X148844000Y-61976000D03*
X128016000Y-68072000D03*
X128016000Y-65532000D03*
X128016000Y-62992000D03*
X128016000Y-60479741D03*
X139700000Y-59944000D03*
M02*
