G04 #@! TF.GenerationSoftware,KiCad,Pcbnew,5.1.2-f72e74a~84~ubuntu18.04.1*
G04 #@! TF.CreationDate,2019-07-02T23:06:04+08:00*
G04 #@! TF.ProjectId,cs4354-daughterboard,63733433-3534-42d6-9461-756768746572,rev?*
G04 #@! TF.SameCoordinates,Original*
G04 #@! TF.FileFunction,Copper,L2,Bot*
G04 #@! TF.FilePolarity,Positive*
%FSLAX46Y46*%
G04 Gerber Fmt 4.6, Leading zero omitted, Abs format (unit mm)*
G04 Created by KiCad (PCBNEW 5.1.2-f72e74a~84~ubuntu18.04.1) date 2019-07-02 23:06:04*
%MOMM*%
%LPD*%
G04 APERTURE LIST*
%ADD10C,0.100000*%
%ADD11C,1.150000*%
%ADD12R,1.700000X1.700000*%
%ADD13O,1.700000X1.700000*%
%ADD14C,0.800000*%
%ADD15C,0.250000*%
%ADD16C,0.254000*%
G04 APERTURE END LIST*
D10*
G36*
X133200505Y-67373204D02*
G01*
X133224773Y-67376804D01*
X133248572Y-67382765D01*
X133271671Y-67391030D01*
X133293850Y-67401520D01*
X133314893Y-67414132D01*
X133334599Y-67428747D01*
X133352777Y-67445223D01*
X133369253Y-67463401D01*
X133383868Y-67483107D01*
X133396480Y-67504150D01*
X133406970Y-67526329D01*
X133415235Y-67549428D01*
X133421196Y-67573227D01*
X133424796Y-67597495D01*
X133426000Y-67621999D01*
X133426000Y-68522001D01*
X133424796Y-68546505D01*
X133421196Y-68570773D01*
X133415235Y-68594572D01*
X133406970Y-68617671D01*
X133396480Y-68639850D01*
X133383868Y-68660893D01*
X133369253Y-68680599D01*
X133352777Y-68698777D01*
X133334599Y-68715253D01*
X133314893Y-68729868D01*
X133293850Y-68742480D01*
X133271671Y-68752970D01*
X133248572Y-68761235D01*
X133224773Y-68767196D01*
X133200505Y-68770796D01*
X133176001Y-68772000D01*
X132525999Y-68772000D01*
X132501495Y-68770796D01*
X132477227Y-68767196D01*
X132453428Y-68761235D01*
X132430329Y-68752970D01*
X132408150Y-68742480D01*
X132387107Y-68729868D01*
X132367401Y-68715253D01*
X132349223Y-68698777D01*
X132332747Y-68680599D01*
X132318132Y-68660893D01*
X132305520Y-68639850D01*
X132295030Y-68617671D01*
X132286765Y-68594572D01*
X132280804Y-68570773D01*
X132277204Y-68546505D01*
X132276000Y-68522001D01*
X132276000Y-67621999D01*
X132277204Y-67597495D01*
X132280804Y-67573227D01*
X132286765Y-67549428D01*
X132295030Y-67526329D01*
X132305520Y-67504150D01*
X132318132Y-67483107D01*
X132332747Y-67463401D01*
X132349223Y-67445223D01*
X132367401Y-67428747D01*
X132387107Y-67414132D01*
X132408150Y-67401520D01*
X132430329Y-67391030D01*
X132453428Y-67382765D01*
X132477227Y-67376804D01*
X132501495Y-67373204D01*
X132525999Y-67372000D01*
X133176001Y-67372000D01*
X133200505Y-67373204D01*
X133200505Y-67373204D01*
G37*
D11*
X132851000Y-68072000D03*
D10*
G36*
X131150505Y-67373204D02*
G01*
X131174773Y-67376804D01*
X131198572Y-67382765D01*
X131221671Y-67391030D01*
X131243850Y-67401520D01*
X131264893Y-67414132D01*
X131284599Y-67428747D01*
X131302777Y-67445223D01*
X131319253Y-67463401D01*
X131333868Y-67483107D01*
X131346480Y-67504150D01*
X131356970Y-67526329D01*
X131365235Y-67549428D01*
X131371196Y-67573227D01*
X131374796Y-67597495D01*
X131376000Y-67621999D01*
X131376000Y-68522001D01*
X131374796Y-68546505D01*
X131371196Y-68570773D01*
X131365235Y-68594572D01*
X131356970Y-68617671D01*
X131346480Y-68639850D01*
X131333868Y-68660893D01*
X131319253Y-68680599D01*
X131302777Y-68698777D01*
X131284599Y-68715253D01*
X131264893Y-68729868D01*
X131243850Y-68742480D01*
X131221671Y-68752970D01*
X131198572Y-68761235D01*
X131174773Y-68767196D01*
X131150505Y-68770796D01*
X131126001Y-68772000D01*
X130475999Y-68772000D01*
X130451495Y-68770796D01*
X130427227Y-68767196D01*
X130403428Y-68761235D01*
X130380329Y-68752970D01*
X130358150Y-68742480D01*
X130337107Y-68729868D01*
X130317401Y-68715253D01*
X130299223Y-68698777D01*
X130282747Y-68680599D01*
X130268132Y-68660893D01*
X130255520Y-68639850D01*
X130245030Y-68617671D01*
X130236765Y-68594572D01*
X130230804Y-68570773D01*
X130227204Y-68546505D01*
X130226000Y-68522001D01*
X130226000Y-67621999D01*
X130227204Y-67597495D01*
X130230804Y-67573227D01*
X130236765Y-67549428D01*
X130245030Y-67526329D01*
X130255520Y-67504150D01*
X130268132Y-67483107D01*
X130282747Y-67463401D01*
X130299223Y-67445223D01*
X130317401Y-67428747D01*
X130337107Y-67414132D01*
X130358150Y-67401520D01*
X130380329Y-67391030D01*
X130403428Y-67382765D01*
X130427227Y-67376804D01*
X130451495Y-67373204D01*
X130475999Y-67372000D01*
X131126001Y-67372000D01*
X131150505Y-67373204D01*
X131150505Y-67373204D01*
G37*
D11*
X130801000Y-68072000D03*
D10*
G36*
X133200505Y-64833204D02*
G01*
X133224773Y-64836804D01*
X133248572Y-64842765D01*
X133271671Y-64851030D01*
X133293850Y-64861520D01*
X133314893Y-64874132D01*
X133334599Y-64888747D01*
X133352777Y-64905223D01*
X133369253Y-64923401D01*
X133383868Y-64943107D01*
X133396480Y-64964150D01*
X133406970Y-64986329D01*
X133415235Y-65009428D01*
X133421196Y-65033227D01*
X133424796Y-65057495D01*
X133426000Y-65081999D01*
X133426000Y-65982001D01*
X133424796Y-66006505D01*
X133421196Y-66030773D01*
X133415235Y-66054572D01*
X133406970Y-66077671D01*
X133396480Y-66099850D01*
X133383868Y-66120893D01*
X133369253Y-66140599D01*
X133352777Y-66158777D01*
X133334599Y-66175253D01*
X133314893Y-66189868D01*
X133293850Y-66202480D01*
X133271671Y-66212970D01*
X133248572Y-66221235D01*
X133224773Y-66227196D01*
X133200505Y-66230796D01*
X133176001Y-66232000D01*
X132525999Y-66232000D01*
X132501495Y-66230796D01*
X132477227Y-66227196D01*
X132453428Y-66221235D01*
X132430329Y-66212970D01*
X132408150Y-66202480D01*
X132387107Y-66189868D01*
X132367401Y-66175253D01*
X132349223Y-66158777D01*
X132332747Y-66140599D01*
X132318132Y-66120893D01*
X132305520Y-66099850D01*
X132295030Y-66077671D01*
X132286765Y-66054572D01*
X132280804Y-66030773D01*
X132277204Y-66006505D01*
X132276000Y-65982001D01*
X132276000Y-65081999D01*
X132277204Y-65057495D01*
X132280804Y-65033227D01*
X132286765Y-65009428D01*
X132295030Y-64986329D01*
X132305520Y-64964150D01*
X132318132Y-64943107D01*
X132332747Y-64923401D01*
X132349223Y-64905223D01*
X132367401Y-64888747D01*
X132387107Y-64874132D01*
X132408150Y-64861520D01*
X132430329Y-64851030D01*
X132453428Y-64842765D01*
X132477227Y-64836804D01*
X132501495Y-64833204D01*
X132525999Y-64832000D01*
X133176001Y-64832000D01*
X133200505Y-64833204D01*
X133200505Y-64833204D01*
G37*
D11*
X132851000Y-65532000D03*
D10*
G36*
X131150505Y-64833204D02*
G01*
X131174773Y-64836804D01*
X131198572Y-64842765D01*
X131221671Y-64851030D01*
X131243850Y-64861520D01*
X131264893Y-64874132D01*
X131284599Y-64888747D01*
X131302777Y-64905223D01*
X131319253Y-64923401D01*
X131333868Y-64943107D01*
X131346480Y-64964150D01*
X131356970Y-64986329D01*
X131365235Y-65009428D01*
X131371196Y-65033227D01*
X131374796Y-65057495D01*
X131376000Y-65081999D01*
X131376000Y-65982001D01*
X131374796Y-66006505D01*
X131371196Y-66030773D01*
X131365235Y-66054572D01*
X131356970Y-66077671D01*
X131346480Y-66099850D01*
X131333868Y-66120893D01*
X131319253Y-66140599D01*
X131302777Y-66158777D01*
X131284599Y-66175253D01*
X131264893Y-66189868D01*
X131243850Y-66202480D01*
X131221671Y-66212970D01*
X131198572Y-66221235D01*
X131174773Y-66227196D01*
X131150505Y-66230796D01*
X131126001Y-66232000D01*
X130475999Y-66232000D01*
X130451495Y-66230796D01*
X130427227Y-66227196D01*
X130403428Y-66221235D01*
X130380329Y-66212970D01*
X130358150Y-66202480D01*
X130337107Y-66189868D01*
X130317401Y-66175253D01*
X130299223Y-66158777D01*
X130282747Y-66140599D01*
X130268132Y-66120893D01*
X130255520Y-66099850D01*
X130245030Y-66077671D01*
X130236765Y-66054572D01*
X130230804Y-66030773D01*
X130227204Y-66006505D01*
X130226000Y-65982001D01*
X130226000Y-65081999D01*
X130227204Y-65057495D01*
X130230804Y-65033227D01*
X130236765Y-65009428D01*
X130245030Y-64986329D01*
X130255520Y-64964150D01*
X130268132Y-64943107D01*
X130282747Y-64923401D01*
X130299223Y-64905223D01*
X130317401Y-64888747D01*
X130337107Y-64874132D01*
X130358150Y-64861520D01*
X130380329Y-64851030D01*
X130403428Y-64842765D01*
X130427227Y-64836804D01*
X130451495Y-64833204D01*
X130475999Y-64832000D01*
X131126001Y-64832000D01*
X131150505Y-64833204D01*
X131150505Y-64833204D01*
G37*
D11*
X130801000Y-65532000D03*
D10*
G36*
X133200505Y-62293204D02*
G01*
X133224773Y-62296804D01*
X133248572Y-62302765D01*
X133271671Y-62311030D01*
X133293850Y-62321520D01*
X133314893Y-62334132D01*
X133334599Y-62348747D01*
X133352777Y-62365223D01*
X133369253Y-62383401D01*
X133383868Y-62403107D01*
X133396480Y-62424150D01*
X133406970Y-62446329D01*
X133415235Y-62469428D01*
X133421196Y-62493227D01*
X133424796Y-62517495D01*
X133426000Y-62541999D01*
X133426000Y-63442001D01*
X133424796Y-63466505D01*
X133421196Y-63490773D01*
X133415235Y-63514572D01*
X133406970Y-63537671D01*
X133396480Y-63559850D01*
X133383868Y-63580893D01*
X133369253Y-63600599D01*
X133352777Y-63618777D01*
X133334599Y-63635253D01*
X133314893Y-63649868D01*
X133293850Y-63662480D01*
X133271671Y-63672970D01*
X133248572Y-63681235D01*
X133224773Y-63687196D01*
X133200505Y-63690796D01*
X133176001Y-63692000D01*
X132525999Y-63692000D01*
X132501495Y-63690796D01*
X132477227Y-63687196D01*
X132453428Y-63681235D01*
X132430329Y-63672970D01*
X132408150Y-63662480D01*
X132387107Y-63649868D01*
X132367401Y-63635253D01*
X132349223Y-63618777D01*
X132332747Y-63600599D01*
X132318132Y-63580893D01*
X132305520Y-63559850D01*
X132295030Y-63537671D01*
X132286765Y-63514572D01*
X132280804Y-63490773D01*
X132277204Y-63466505D01*
X132276000Y-63442001D01*
X132276000Y-62541999D01*
X132277204Y-62517495D01*
X132280804Y-62493227D01*
X132286765Y-62469428D01*
X132295030Y-62446329D01*
X132305520Y-62424150D01*
X132318132Y-62403107D01*
X132332747Y-62383401D01*
X132349223Y-62365223D01*
X132367401Y-62348747D01*
X132387107Y-62334132D01*
X132408150Y-62321520D01*
X132430329Y-62311030D01*
X132453428Y-62302765D01*
X132477227Y-62296804D01*
X132501495Y-62293204D01*
X132525999Y-62292000D01*
X133176001Y-62292000D01*
X133200505Y-62293204D01*
X133200505Y-62293204D01*
G37*
D11*
X132851000Y-62992000D03*
D10*
G36*
X131150505Y-62293204D02*
G01*
X131174773Y-62296804D01*
X131198572Y-62302765D01*
X131221671Y-62311030D01*
X131243850Y-62321520D01*
X131264893Y-62334132D01*
X131284599Y-62348747D01*
X131302777Y-62365223D01*
X131319253Y-62383401D01*
X131333868Y-62403107D01*
X131346480Y-62424150D01*
X131356970Y-62446329D01*
X131365235Y-62469428D01*
X131371196Y-62493227D01*
X131374796Y-62517495D01*
X131376000Y-62541999D01*
X131376000Y-63442001D01*
X131374796Y-63466505D01*
X131371196Y-63490773D01*
X131365235Y-63514572D01*
X131356970Y-63537671D01*
X131346480Y-63559850D01*
X131333868Y-63580893D01*
X131319253Y-63600599D01*
X131302777Y-63618777D01*
X131284599Y-63635253D01*
X131264893Y-63649868D01*
X131243850Y-63662480D01*
X131221671Y-63672970D01*
X131198572Y-63681235D01*
X131174773Y-63687196D01*
X131150505Y-63690796D01*
X131126001Y-63692000D01*
X130475999Y-63692000D01*
X130451495Y-63690796D01*
X130427227Y-63687196D01*
X130403428Y-63681235D01*
X130380329Y-63672970D01*
X130358150Y-63662480D01*
X130337107Y-63649868D01*
X130317401Y-63635253D01*
X130299223Y-63618777D01*
X130282747Y-63600599D01*
X130268132Y-63580893D01*
X130255520Y-63559850D01*
X130245030Y-63537671D01*
X130236765Y-63514572D01*
X130230804Y-63490773D01*
X130227204Y-63466505D01*
X130226000Y-63442001D01*
X130226000Y-62541999D01*
X130227204Y-62517495D01*
X130230804Y-62493227D01*
X130236765Y-62469428D01*
X130245030Y-62446329D01*
X130255520Y-62424150D01*
X130268132Y-62403107D01*
X130282747Y-62383401D01*
X130299223Y-62365223D01*
X130317401Y-62348747D01*
X130337107Y-62334132D01*
X130358150Y-62321520D01*
X130380329Y-62311030D01*
X130403428Y-62302765D01*
X130427227Y-62296804D01*
X130451495Y-62293204D01*
X130475999Y-62292000D01*
X131126001Y-62292000D01*
X131150505Y-62293204D01*
X131150505Y-62293204D01*
G37*
D11*
X130801000Y-62992000D03*
D10*
G36*
X133200505Y-59753204D02*
G01*
X133224773Y-59756804D01*
X133248572Y-59762765D01*
X133271671Y-59771030D01*
X133293850Y-59781520D01*
X133314893Y-59794132D01*
X133334599Y-59808747D01*
X133352777Y-59825223D01*
X133369253Y-59843401D01*
X133383868Y-59863107D01*
X133396480Y-59884150D01*
X133406970Y-59906329D01*
X133415235Y-59929428D01*
X133421196Y-59953227D01*
X133424796Y-59977495D01*
X133426000Y-60001999D01*
X133426000Y-60902001D01*
X133424796Y-60926505D01*
X133421196Y-60950773D01*
X133415235Y-60974572D01*
X133406970Y-60997671D01*
X133396480Y-61019850D01*
X133383868Y-61040893D01*
X133369253Y-61060599D01*
X133352777Y-61078777D01*
X133334599Y-61095253D01*
X133314893Y-61109868D01*
X133293850Y-61122480D01*
X133271671Y-61132970D01*
X133248572Y-61141235D01*
X133224773Y-61147196D01*
X133200505Y-61150796D01*
X133176001Y-61152000D01*
X132525999Y-61152000D01*
X132501495Y-61150796D01*
X132477227Y-61147196D01*
X132453428Y-61141235D01*
X132430329Y-61132970D01*
X132408150Y-61122480D01*
X132387107Y-61109868D01*
X132367401Y-61095253D01*
X132349223Y-61078777D01*
X132332747Y-61060599D01*
X132318132Y-61040893D01*
X132305520Y-61019850D01*
X132295030Y-60997671D01*
X132286765Y-60974572D01*
X132280804Y-60950773D01*
X132277204Y-60926505D01*
X132276000Y-60902001D01*
X132276000Y-60001999D01*
X132277204Y-59977495D01*
X132280804Y-59953227D01*
X132286765Y-59929428D01*
X132295030Y-59906329D01*
X132305520Y-59884150D01*
X132318132Y-59863107D01*
X132332747Y-59843401D01*
X132349223Y-59825223D01*
X132367401Y-59808747D01*
X132387107Y-59794132D01*
X132408150Y-59781520D01*
X132430329Y-59771030D01*
X132453428Y-59762765D01*
X132477227Y-59756804D01*
X132501495Y-59753204D01*
X132525999Y-59752000D01*
X133176001Y-59752000D01*
X133200505Y-59753204D01*
X133200505Y-59753204D01*
G37*
D11*
X132851000Y-60452000D03*
D10*
G36*
X131150505Y-59753204D02*
G01*
X131174773Y-59756804D01*
X131198572Y-59762765D01*
X131221671Y-59771030D01*
X131243850Y-59781520D01*
X131264893Y-59794132D01*
X131284599Y-59808747D01*
X131302777Y-59825223D01*
X131319253Y-59843401D01*
X131333868Y-59863107D01*
X131346480Y-59884150D01*
X131356970Y-59906329D01*
X131365235Y-59929428D01*
X131371196Y-59953227D01*
X131374796Y-59977495D01*
X131376000Y-60001999D01*
X131376000Y-60902001D01*
X131374796Y-60926505D01*
X131371196Y-60950773D01*
X131365235Y-60974572D01*
X131356970Y-60997671D01*
X131346480Y-61019850D01*
X131333868Y-61040893D01*
X131319253Y-61060599D01*
X131302777Y-61078777D01*
X131284599Y-61095253D01*
X131264893Y-61109868D01*
X131243850Y-61122480D01*
X131221671Y-61132970D01*
X131198572Y-61141235D01*
X131174773Y-61147196D01*
X131150505Y-61150796D01*
X131126001Y-61152000D01*
X130475999Y-61152000D01*
X130451495Y-61150796D01*
X130427227Y-61147196D01*
X130403428Y-61141235D01*
X130380329Y-61132970D01*
X130358150Y-61122480D01*
X130337107Y-61109868D01*
X130317401Y-61095253D01*
X130299223Y-61078777D01*
X130282747Y-61060599D01*
X130268132Y-61040893D01*
X130255520Y-61019850D01*
X130245030Y-60997671D01*
X130236765Y-60974572D01*
X130230804Y-60950773D01*
X130227204Y-60926505D01*
X130226000Y-60902001D01*
X130226000Y-60001999D01*
X130227204Y-59977495D01*
X130230804Y-59953227D01*
X130236765Y-59929428D01*
X130245030Y-59906329D01*
X130255520Y-59884150D01*
X130268132Y-59863107D01*
X130282747Y-59843401D01*
X130299223Y-59825223D01*
X130317401Y-59808747D01*
X130337107Y-59794132D01*
X130358150Y-59781520D01*
X130380329Y-59771030D01*
X130403428Y-59762765D01*
X130427227Y-59756804D01*
X130451495Y-59753204D01*
X130475999Y-59752000D01*
X131126001Y-59752000D01*
X131150505Y-59753204D01*
X131150505Y-59753204D01*
G37*
D11*
X130801000Y-60452000D03*
D12*
X137160000Y-59944000D03*
X142240000Y-59944000D03*
D13*
X148844000Y-69596000D03*
X148844000Y-67056000D03*
X148844000Y-64516000D03*
D12*
X148844000Y-61976000D03*
X128016000Y-68072000D03*
X128016000Y-65532000D03*
X128016000Y-62992000D03*
X128016000Y-60479741D03*
X139700000Y-59944000D03*
D14*
X135382000Y-68072000D03*
X142367000Y-68961000D03*
D15*
X139700000Y-61044000D02*
X139700000Y-59944000D01*
X139022000Y-61722000D02*
X139700000Y-61044000D01*
X139022000Y-61722000D02*
X136906000Y-61722000D01*
X136906000Y-61722000D02*
X134366000Y-64262000D01*
X134366000Y-64262000D02*
X133096000Y-64262000D01*
X133096000Y-64262000D02*
X132851000Y-64507000D01*
X132851000Y-60452000D02*
X132851000Y-64507000D01*
X132851000Y-64507000D02*
X132851000Y-68072000D01*
X130801000Y-65532000D02*
X128016000Y-65532000D01*
X128016000Y-62992000D02*
X130801000Y-62992000D01*
X128043741Y-60452000D02*
X128016000Y-60479741D01*
X130801000Y-60452000D02*
X128043741Y-60452000D01*
X127771000Y-67827000D02*
X128016000Y-68072000D01*
X129116000Y-68072000D02*
X130801000Y-68072000D01*
X128016000Y-68072000D02*
X129116000Y-68072000D01*
D16*
G36*
X153010233Y-56569969D02*
G01*
X153488030Y-57047766D01*
X154001000Y-58073707D01*
X154001000Y-58513354D01*
X154001001Y-71848343D01*
X154001000Y-71848353D01*
X154001000Y-72355293D01*
X153488030Y-73381234D01*
X153010233Y-73859031D01*
X151984294Y-74372000D01*
X123732707Y-74372000D01*
X122706766Y-73859030D01*
X122228969Y-73381233D01*
X121716000Y-72355294D01*
X121716000Y-71696344D01*
X122321000Y-71696344D01*
X122321000Y-72067656D01*
X122393439Y-72431834D01*
X122535534Y-72774882D01*
X122741825Y-73083618D01*
X123004382Y-73346175D01*
X123313118Y-73552466D01*
X123656166Y-73694561D01*
X124020344Y-73767000D01*
X124391656Y-73767000D01*
X124755834Y-73694561D01*
X125098882Y-73552466D01*
X125407618Y-73346175D01*
X125670175Y-73083618D01*
X125876466Y-72774882D01*
X126018561Y-72431834D01*
X126091000Y-72067656D01*
X126091000Y-71696344D01*
X126018561Y-71332166D01*
X125876466Y-70989118D01*
X125670175Y-70680382D01*
X125407618Y-70417825D01*
X125098882Y-70211534D01*
X124755834Y-70069439D01*
X124391656Y-69997000D01*
X124020344Y-69997000D01*
X123656166Y-70069439D01*
X123313118Y-70211534D01*
X123004382Y-70417825D01*
X122741825Y-70680382D01*
X122535534Y-70989118D01*
X122393439Y-71332166D01*
X122321000Y-71696344D01*
X121716000Y-71696344D01*
X121716000Y-69596000D01*
X147351815Y-69596000D01*
X147380487Y-69887111D01*
X147465401Y-70167034D01*
X147603294Y-70425014D01*
X147788866Y-70651134D01*
X148014986Y-70836706D01*
X148272966Y-70974599D01*
X148552889Y-71059513D01*
X148771050Y-71081000D01*
X148916950Y-71081000D01*
X149135111Y-71059513D01*
X149415034Y-70974599D01*
X149673014Y-70836706D01*
X149899134Y-70651134D01*
X150084706Y-70425014D01*
X150222599Y-70167034D01*
X150307513Y-69887111D01*
X150336185Y-69596000D01*
X150307513Y-69304889D01*
X150222599Y-69024966D01*
X150084706Y-68766986D01*
X149899134Y-68540866D01*
X149673014Y-68355294D01*
X149608477Y-68320799D01*
X149725355Y-68251178D01*
X149941588Y-68056269D01*
X150115641Y-67822920D01*
X150240825Y-67560099D01*
X150285476Y-67412890D01*
X150164155Y-67183000D01*
X148971000Y-67183000D01*
X148971000Y-67203000D01*
X148717000Y-67203000D01*
X148717000Y-67183000D01*
X147523845Y-67183000D01*
X147402524Y-67412890D01*
X147447175Y-67560099D01*
X147572359Y-67822920D01*
X147746412Y-68056269D01*
X147962645Y-68251178D01*
X148079523Y-68320799D01*
X148014986Y-68355294D01*
X147788866Y-68540866D01*
X147603294Y-68766986D01*
X147465401Y-69024966D01*
X147380487Y-69304889D01*
X147351815Y-69596000D01*
X121716000Y-69596000D01*
X121716000Y-59629741D01*
X126527928Y-59629741D01*
X126527928Y-61329741D01*
X126540188Y-61454223D01*
X126576498Y-61573921D01*
X126635463Y-61684235D01*
X126677839Y-61735870D01*
X126635463Y-61787506D01*
X126576498Y-61897820D01*
X126540188Y-62017518D01*
X126527928Y-62142000D01*
X126527928Y-63842000D01*
X126540188Y-63966482D01*
X126576498Y-64086180D01*
X126635463Y-64196494D01*
X126689222Y-64262000D01*
X126635463Y-64327506D01*
X126576498Y-64437820D01*
X126540188Y-64557518D01*
X126527928Y-64682000D01*
X126527928Y-66382000D01*
X126540188Y-66506482D01*
X126576498Y-66626180D01*
X126635463Y-66736494D01*
X126689222Y-66802000D01*
X126635463Y-66867506D01*
X126576498Y-66977820D01*
X126540188Y-67097518D01*
X126527928Y-67222000D01*
X126527928Y-68922000D01*
X126540188Y-69046482D01*
X126576498Y-69166180D01*
X126635463Y-69276494D01*
X126714815Y-69373185D01*
X126811506Y-69452537D01*
X126921820Y-69511502D01*
X127041518Y-69547812D01*
X127166000Y-69560072D01*
X128866000Y-69560072D01*
X128990482Y-69547812D01*
X129110180Y-69511502D01*
X129220494Y-69452537D01*
X129317185Y-69373185D01*
X129396537Y-69276494D01*
X129455502Y-69166180D01*
X129491812Y-69046482D01*
X129504072Y-68922000D01*
X129504072Y-68832000D01*
X129646473Y-68832000D01*
X129655528Y-68861851D01*
X129737595Y-69015387D01*
X129848038Y-69149962D01*
X129982613Y-69260405D01*
X130136149Y-69342472D01*
X130302745Y-69393008D01*
X130475999Y-69410072D01*
X131126001Y-69410072D01*
X131299255Y-69393008D01*
X131465851Y-69342472D01*
X131619387Y-69260405D01*
X131753962Y-69149962D01*
X131826000Y-69062184D01*
X131898038Y-69149962D01*
X132032613Y-69260405D01*
X132186149Y-69342472D01*
X132352745Y-69393008D01*
X132525999Y-69410072D01*
X133176001Y-69410072D01*
X133349255Y-69393008D01*
X133515851Y-69342472D01*
X133669387Y-69260405D01*
X133803962Y-69149962D01*
X133914405Y-69015387D01*
X133996472Y-68861851D01*
X134047008Y-68695255D01*
X134064072Y-68522001D01*
X134064072Y-67621999D01*
X134047008Y-67448745D01*
X133996472Y-67282149D01*
X133914405Y-67128613D01*
X133803962Y-66994038D01*
X133669387Y-66883595D01*
X133611000Y-66852386D01*
X133611000Y-66751614D01*
X133669387Y-66720405D01*
X133803962Y-66609962D01*
X133914405Y-66475387D01*
X133996472Y-66321851D01*
X134047008Y-66155255D01*
X134064072Y-65982001D01*
X134064072Y-65081999D01*
X134058163Y-65022000D01*
X134328678Y-65022000D01*
X134366000Y-65025676D01*
X134403322Y-65022000D01*
X134403333Y-65022000D01*
X134514986Y-65011003D01*
X134658247Y-64967546D01*
X134790276Y-64896974D01*
X134819622Y-64872890D01*
X147402524Y-64872890D01*
X147447175Y-65020099D01*
X147572359Y-65282920D01*
X147746412Y-65516269D01*
X147962645Y-65711178D01*
X148088255Y-65786000D01*
X147962645Y-65860822D01*
X147746412Y-66055731D01*
X147572359Y-66289080D01*
X147447175Y-66551901D01*
X147402524Y-66699110D01*
X147523845Y-66929000D01*
X148717000Y-66929000D01*
X148717000Y-64643000D01*
X148971000Y-64643000D01*
X148971000Y-66929000D01*
X150164155Y-66929000D01*
X150285476Y-66699110D01*
X150240825Y-66551901D01*
X150115641Y-66289080D01*
X149941588Y-66055731D01*
X149725355Y-65860822D01*
X149599745Y-65786000D01*
X149725355Y-65711178D01*
X149941588Y-65516269D01*
X150115641Y-65282920D01*
X150240825Y-65020099D01*
X150285476Y-64872890D01*
X150164155Y-64643000D01*
X148971000Y-64643000D01*
X148717000Y-64643000D01*
X147523845Y-64643000D01*
X147402524Y-64872890D01*
X134819622Y-64872890D01*
X134906001Y-64802001D01*
X134929804Y-64772997D01*
X137220803Y-62482000D01*
X138984678Y-62482000D01*
X139022000Y-62485676D01*
X139059322Y-62482000D01*
X139059333Y-62482000D01*
X139170986Y-62471003D01*
X139314247Y-62427546D01*
X139446276Y-62356974D01*
X139562001Y-62262001D01*
X139585803Y-62232998D01*
X140211004Y-61607798D01*
X140240001Y-61584001D01*
X140334974Y-61468276D01*
X140354326Y-61432072D01*
X140550000Y-61432072D01*
X140674482Y-61419812D01*
X140794180Y-61383502D01*
X140904494Y-61324537D01*
X140970000Y-61270778D01*
X141035506Y-61324537D01*
X141145820Y-61383502D01*
X141265518Y-61419812D01*
X141390000Y-61432072D01*
X141954250Y-61429000D01*
X142113000Y-61270250D01*
X142113000Y-60071000D01*
X142367000Y-60071000D01*
X142367000Y-61270250D01*
X142525750Y-61429000D01*
X143090000Y-61432072D01*
X143214482Y-61419812D01*
X143334180Y-61383502D01*
X143444494Y-61324537D01*
X143541185Y-61245185D01*
X143620537Y-61148494D01*
X143632560Y-61126000D01*
X147355928Y-61126000D01*
X147355928Y-62826000D01*
X147368188Y-62950482D01*
X147404498Y-63070180D01*
X147463463Y-63180494D01*
X147542815Y-63277185D01*
X147639506Y-63356537D01*
X147749820Y-63415502D01*
X147830466Y-63439966D01*
X147746412Y-63515731D01*
X147572359Y-63749080D01*
X147447175Y-64011901D01*
X147402524Y-64159110D01*
X147523845Y-64389000D01*
X148717000Y-64389000D01*
X148717000Y-64369000D01*
X148971000Y-64369000D01*
X148971000Y-64389000D01*
X150164155Y-64389000D01*
X150285476Y-64159110D01*
X150240825Y-64011901D01*
X150115641Y-63749080D01*
X149941588Y-63515731D01*
X149857534Y-63439966D01*
X149938180Y-63415502D01*
X150048494Y-63356537D01*
X150145185Y-63277185D01*
X150224537Y-63180494D01*
X150283502Y-63070180D01*
X150319812Y-62950482D01*
X150332072Y-62826000D01*
X150332072Y-61126000D01*
X150319812Y-61001518D01*
X150283502Y-60881820D01*
X150224537Y-60771506D01*
X150145185Y-60674815D01*
X150048494Y-60595463D01*
X149938180Y-60536498D01*
X149818482Y-60500188D01*
X149694000Y-60487928D01*
X147994000Y-60487928D01*
X147869518Y-60500188D01*
X147749820Y-60536498D01*
X147639506Y-60595463D01*
X147542815Y-60674815D01*
X147463463Y-60771506D01*
X147404498Y-60881820D01*
X147368188Y-61001518D01*
X147355928Y-61126000D01*
X143632560Y-61126000D01*
X143679502Y-61038180D01*
X143715812Y-60918482D01*
X143728072Y-60794000D01*
X143725000Y-60229750D01*
X143566250Y-60071000D01*
X142367000Y-60071000D01*
X142113000Y-60071000D01*
X142093000Y-60071000D01*
X142093000Y-59817000D01*
X142113000Y-59817000D01*
X142113000Y-58617750D01*
X142367000Y-58617750D01*
X142367000Y-59817000D01*
X143566250Y-59817000D01*
X143725000Y-59658250D01*
X143728072Y-59094000D01*
X143715812Y-58969518D01*
X143679502Y-58849820D01*
X143620537Y-58739506D01*
X143541185Y-58642815D01*
X143444494Y-58563463D01*
X143334180Y-58504498D01*
X143214482Y-58468188D01*
X143090000Y-58455928D01*
X142525750Y-58459000D01*
X142367000Y-58617750D01*
X142113000Y-58617750D01*
X141954250Y-58459000D01*
X141390000Y-58455928D01*
X141265518Y-58468188D01*
X141145820Y-58504498D01*
X141035506Y-58563463D01*
X140970000Y-58617222D01*
X140904494Y-58563463D01*
X140794180Y-58504498D01*
X140674482Y-58468188D01*
X140550000Y-58455928D01*
X138850000Y-58455928D01*
X138725518Y-58468188D01*
X138605820Y-58504498D01*
X138495506Y-58563463D01*
X138430000Y-58617222D01*
X138364494Y-58563463D01*
X138254180Y-58504498D01*
X138134482Y-58468188D01*
X138010000Y-58455928D01*
X136310000Y-58455928D01*
X136185518Y-58468188D01*
X136065820Y-58504498D01*
X135955506Y-58563463D01*
X135858815Y-58642815D01*
X135779463Y-58739506D01*
X135720498Y-58849820D01*
X135684188Y-58969518D01*
X135671928Y-59094000D01*
X135671928Y-60794000D01*
X135684188Y-60918482D01*
X135720498Y-61038180D01*
X135779463Y-61148494D01*
X135858815Y-61245185D01*
X135955506Y-61324537D01*
X136065820Y-61383502D01*
X136145519Y-61407678D01*
X134058923Y-63494275D01*
X134064072Y-63442001D01*
X134064072Y-62541999D01*
X134047008Y-62368745D01*
X133996472Y-62202149D01*
X133914405Y-62048613D01*
X133803962Y-61914038D01*
X133669387Y-61803595D01*
X133611000Y-61772386D01*
X133611000Y-61671614D01*
X133669387Y-61640405D01*
X133803962Y-61529962D01*
X133914405Y-61395387D01*
X133996472Y-61241851D01*
X134047008Y-61075255D01*
X134064072Y-60902001D01*
X134064072Y-60001999D01*
X134047008Y-59828745D01*
X133996472Y-59662149D01*
X133914405Y-59508613D01*
X133803962Y-59374038D01*
X133669387Y-59263595D01*
X133515851Y-59181528D01*
X133349255Y-59130992D01*
X133176001Y-59113928D01*
X132525999Y-59113928D01*
X132352745Y-59130992D01*
X132186149Y-59181528D01*
X132032613Y-59263595D01*
X131898038Y-59374038D01*
X131826000Y-59461816D01*
X131753962Y-59374038D01*
X131619387Y-59263595D01*
X131465851Y-59181528D01*
X131299255Y-59130992D01*
X131126001Y-59113928D01*
X130475999Y-59113928D01*
X130302745Y-59130992D01*
X130136149Y-59181528D01*
X129982613Y-59263595D01*
X129848038Y-59374038D01*
X129737595Y-59508613D01*
X129655528Y-59662149D01*
X129646473Y-59692000D01*
X129504072Y-59692000D01*
X129504072Y-59629741D01*
X129491812Y-59505259D01*
X129455502Y-59385561D01*
X129396537Y-59275247D01*
X129317185Y-59178556D01*
X129220494Y-59099204D01*
X129110180Y-59040239D01*
X128990482Y-59003929D01*
X128866000Y-58991669D01*
X127166000Y-58991669D01*
X127041518Y-59003929D01*
X126921820Y-59040239D01*
X126811506Y-59099204D01*
X126714815Y-59178556D01*
X126635463Y-59275247D01*
X126576498Y-59385561D01*
X126540188Y-59505259D01*
X126527928Y-59629741D01*
X121716000Y-59629741D01*
X121716000Y-58361344D01*
X149626000Y-58361344D01*
X149626000Y-58732656D01*
X149698439Y-59096834D01*
X149840534Y-59439882D01*
X150046825Y-59748618D01*
X150309382Y-60011175D01*
X150618118Y-60217466D01*
X150961166Y-60359561D01*
X151325344Y-60432000D01*
X151696656Y-60432000D01*
X152060834Y-60359561D01*
X152403882Y-60217466D01*
X152712618Y-60011175D01*
X152975175Y-59748618D01*
X153181466Y-59439882D01*
X153323561Y-59096834D01*
X153396000Y-58732656D01*
X153396000Y-58361344D01*
X153323561Y-57997166D01*
X153181466Y-57654118D01*
X152975175Y-57345382D01*
X152712618Y-57082825D01*
X152403882Y-56876534D01*
X152060834Y-56734439D01*
X151696656Y-56662000D01*
X151325344Y-56662000D01*
X150961166Y-56734439D01*
X150618118Y-56876534D01*
X150309382Y-57082825D01*
X150046825Y-57345382D01*
X149840534Y-57654118D01*
X149698439Y-57997166D01*
X149626000Y-58361344D01*
X121716000Y-58361344D01*
X121716000Y-58073706D01*
X122228969Y-57047767D01*
X122706766Y-56569970D01*
X123732707Y-56057000D01*
X151984294Y-56057000D01*
X153010233Y-56569969D01*
X153010233Y-56569969D01*
G37*
X153010233Y-56569969D02*
X153488030Y-57047766D01*
X154001000Y-58073707D01*
X154001000Y-58513354D01*
X154001001Y-71848343D01*
X154001000Y-71848353D01*
X154001000Y-72355293D01*
X153488030Y-73381234D01*
X153010233Y-73859031D01*
X151984294Y-74372000D01*
X123732707Y-74372000D01*
X122706766Y-73859030D01*
X122228969Y-73381233D01*
X121716000Y-72355294D01*
X121716000Y-71696344D01*
X122321000Y-71696344D01*
X122321000Y-72067656D01*
X122393439Y-72431834D01*
X122535534Y-72774882D01*
X122741825Y-73083618D01*
X123004382Y-73346175D01*
X123313118Y-73552466D01*
X123656166Y-73694561D01*
X124020344Y-73767000D01*
X124391656Y-73767000D01*
X124755834Y-73694561D01*
X125098882Y-73552466D01*
X125407618Y-73346175D01*
X125670175Y-73083618D01*
X125876466Y-72774882D01*
X126018561Y-72431834D01*
X126091000Y-72067656D01*
X126091000Y-71696344D01*
X126018561Y-71332166D01*
X125876466Y-70989118D01*
X125670175Y-70680382D01*
X125407618Y-70417825D01*
X125098882Y-70211534D01*
X124755834Y-70069439D01*
X124391656Y-69997000D01*
X124020344Y-69997000D01*
X123656166Y-70069439D01*
X123313118Y-70211534D01*
X123004382Y-70417825D01*
X122741825Y-70680382D01*
X122535534Y-70989118D01*
X122393439Y-71332166D01*
X122321000Y-71696344D01*
X121716000Y-71696344D01*
X121716000Y-69596000D01*
X147351815Y-69596000D01*
X147380487Y-69887111D01*
X147465401Y-70167034D01*
X147603294Y-70425014D01*
X147788866Y-70651134D01*
X148014986Y-70836706D01*
X148272966Y-70974599D01*
X148552889Y-71059513D01*
X148771050Y-71081000D01*
X148916950Y-71081000D01*
X149135111Y-71059513D01*
X149415034Y-70974599D01*
X149673014Y-70836706D01*
X149899134Y-70651134D01*
X150084706Y-70425014D01*
X150222599Y-70167034D01*
X150307513Y-69887111D01*
X150336185Y-69596000D01*
X150307513Y-69304889D01*
X150222599Y-69024966D01*
X150084706Y-68766986D01*
X149899134Y-68540866D01*
X149673014Y-68355294D01*
X149608477Y-68320799D01*
X149725355Y-68251178D01*
X149941588Y-68056269D01*
X150115641Y-67822920D01*
X150240825Y-67560099D01*
X150285476Y-67412890D01*
X150164155Y-67183000D01*
X148971000Y-67183000D01*
X148971000Y-67203000D01*
X148717000Y-67203000D01*
X148717000Y-67183000D01*
X147523845Y-67183000D01*
X147402524Y-67412890D01*
X147447175Y-67560099D01*
X147572359Y-67822920D01*
X147746412Y-68056269D01*
X147962645Y-68251178D01*
X148079523Y-68320799D01*
X148014986Y-68355294D01*
X147788866Y-68540866D01*
X147603294Y-68766986D01*
X147465401Y-69024966D01*
X147380487Y-69304889D01*
X147351815Y-69596000D01*
X121716000Y-69596000D01*
X121716000Y-59629741D01*
X126527928Y-59629741D01*
X126527928Y-61329741D01*
X126540188Y-61454223D01*
X126576498Y-61573921D01*
X126635463Y-61684235D01*
X126677839Y-61735870D01*
X126635463Y-61787506D01*
X126576498Y-61897820D01*
X126540188Y-62017518D01*
X126527928Y-62142000D01*
X126527928Y-63842000D01*
X126540188Y-63966482D01*
X126576498Y-64086180D01*
X126635463Y-64196494D01*
X126689222Y-64262000D01*
X126635463Y-64327506D01*
X126576498Y-64437820D01*
X126540188Y-64557518D01*
X126527928Y-64682000D01*
X126527928Y-66382000D01*
X126540188Y-66506482D01*
X126576498Y-66626180D01*
X126635463Y-66736494D01*
X126689222Y-66802000D01*
X126635463Y-66867506D01*
X126576498Y-66977820D01*
X126540188Y-67097518D01*
X126527928Y-67222000D01*
X126527928Y-68922000D01*
X126540188Y-69046482D01*
X126576498Y-69166180D01*
X126635463Y-69276494D01*
X126714815Y-69373185D01*
X126811506Y-69452537D01*
X126921820Y-69511502D01*
X127041518Y-69547812D01*
X127166000Y-69560072D01*
X128866000Y-69560072D01*
X128990482Y-69547812D01*
X129110180Y-69511502D01*
X129220494Y-69452537D01*
X129317185Y-69373185D01*
X129396537Y-69276494D01*
X129455502Y-69166180D01*
X129491812Y-69046482D01*
X129504072Y-68922000D01*
X129504072Y-68832000D01*
X129646473Y-68832000D01*
X129655528Y-68861851D01*
X129737595Y-69015387D01*
X129848038Y-69149962D01*
X129982613Y-69260405D01*
X130136149Y-69342472D01*
X130302745Y-69393008D01*
X130475999Y-69410072D01*
X131126001Y-69410072D01*
X131299255Y-69393008D01*
X131465851Y-69342472D01*
X131619387Y-69260405D01*
X131753962Y-69149962D01*
X131826000Y-69062184D01*
X131898038Y-69149962D01*
X132032613Y-69260405D01*
X132186149Y-69342472D01*
X132352745Y-69393008D01*
X132525999Y-69410072D01*
X133176001Y-69410072D01*
X133349255Y-69393008D01*
X133515851Y-69342472D01*
X133669387Y-69260405D01*
X133803962Y-69149962D01*
X133914405Y-69015387D01*
X133996472Y-68861851D01*
X134047008Y-68695255D01*
X134064072Y-68522001D01*
X134064072Y-67621999D01*
X134047008Y-67448745D01*
X133996472Y-67282149D01*
X133914405Y-67128613D01*
X133803962Y-66994038D01*
X133669387Y-66883595D01*
X133611000Y-66852386D01*
X133611000Y-66751614D01*
X133669387Y-66720405D01*
X133803962Y-66609962D01*
X133914405Y-66475387D01*
X133996472Y-66321851D01*
X134047008Y-66155255D01*
X134064072Y-65982001D01*
X134064072Y-65081999D01*
X134058163Y-65022000D01*
X134328678Y-65022000D01*
X134366000Y-65025676D01*
X134403322Y-65022000D01*
X134403333Y-65022000D01*
X134514986Y-65011003D01*
X134658247Y-64967546D01*
X134790276Y-64896974D01*
X134819622Y-64872890D01*
X147402524Y-64872890D01*
X147447175Y-65020099D01*
X147572359Y-65282920D01*
X147746412Y-65516269D01*
X147962645Y-65711178D01*
X148088255Y-65786000D01*
X147962645Y-65860822D01*
X147746412Y-66055731D01*
X147572359Y-66289080D01*
X147447175Y-66551901D01*
X147402524Y-66699110D01*
X147523845Y-66929000D01*
X148717000Y-66929000D01*
X148717000Y-64643000D01*
X148971000Y-64643000D01*
X148971000Y-66929000D01*
X150164155Y-66929000D01*
X150285476Y-66699110D01*
X150240825Y-66551901D01*
X150115641Y-66289080D01*
X149941588Y-66055731D01*
X149725355Y-65860822D01*
X149599745Y-65786000D01*
X149725355Y-65711178D01*
X149941588Y-65516269D01*
X150115641Y-65282920D01*
X150240825Y-65020099D01*
X150285476Y-64872890D01*
X150164155Y-64643000D01*
X148971000Y-64643000D01*
X148717000Y-64643000D01*
X147523845Y-64643000D01*
X147402524Y-64872890D01*
X134819622Y-64872890D01*
X134906001Y-64802001D01*
X134929804Y-64772997D01*
X137220803Y-62482000D01*
X138984678Y-62482000D01*
X139022000Y-62485676D01*
X139059322Y-62482000D01*
X139059333Y-62482000D01*
X139170986Y-62471003D01*
X139314247Y-62427546D01*
X139446276Y-62356974D01*
X139562001Y-62262001D01*
X139585803Y-62232998D01*
X140211004Y-61607798D01*
X140240001Y-61584001D01*
X140334974Y-61468276D01*
X140354326Y-61432072D01*
X140550000Y-61432072D01*
X140674482Y-61419812D01*
X140794180Y-61383502D01*
X140904494Y-61324537D01*
X140970000Y-61270778D01*
X141035506Y-61324537D01*
X141145820Y-61383502D01*
X141265518Y-61419812D01*
X141390000Y-61432072D01*
X141954250Y-61429000D01*
X142113000Y-61270250D01*
X142113000Y-60071000D01*
X142367000Y-60071000D01*
X142367000Y-61270250D01*
X142525750Y-61429000D01*
X143090000Y-61432072D01*
X143214482Y-61419812D01*
X143334180Y-61383502D01*
X143444494Y-61324537D01*
X143541185Y-61245185D01*
X143620537Y-61148494D01*
X143632560Y-61126000D01*
X147355928Y-61126000D01*
X147355928Y-62826000D01*
X147368188Y-62950482D01*
X147404498Y-63070180D01*
X147463463Y-63180494D01*
X147542815Y-63277185D01*
X147639506Y-63356537D01*
X147749820Y-63415502D01*
X147830466Y-63439966D01*
X147746412Y-63515731D01*
X147572359Y-63749080D01*
X147447175Y-64011901D01*
X147402524Y-64159110D01*
X147523845Y-64389000D01*
X148717000Y-64389000D01*
X148717000Y-64369000D01*
X148971000Y-64369000D01*
X148971000Y-64389000D01*
X150164155Y-64389000D01*
X150285476Y-64159110D01*
X150240825Y-64011901D01*
X150115641Y-63749080D01*
X149941588Y-63515731D01*
X149857534Y-63439966D01*
X149938180Y-63415502D01*
X150048494Y-63356537D01*
X150145185Y-63277185D01*
X150224537Y-63180494D01*
X150283502Y-63070180D01*
X150319812Y-62950482D01*
X150332072Y-62826000D01*
X150332072Y-61126000D01*
X150319812Y-61001518D01*
X150283502Y-60881820D01*
X150224537Y-60771506D01*
X150145185Y-60674815D01*
X150048494Y-60595463D01*
X149938180Y-60536498D01*
X149818482Y-60500188D01*
X149694000Y-60487928D01*
X147994000Y-60487928D01*
X147869518Y-60500188D01*
X147749820Y-60536498D01*
X147639506Y-60595463D01*
X147542815Y-60674815D01*
X147463463Y-60771506D01*
X147404498Y-60881820D01*
X147368188Y-61001518D01*
X147355928Y-61126000D01*
X143632560Y-61126000D01*
X143679502Y-61038180D01*
X143715812Y-60918482D01*
X143728072Y-60794000D01*
X143725000Y-60229750D01*
X143566250Y-60071000D01*
X142367000Y-60071000D01*
X142113000Y-60071000D01*
X142093000Y-60071000D01*
X142093000Y-59817000D01*
X142113000Y-59817000D01*
X142113000Y-58617750D01*
X142367000Y-58617750D01*
X142367000Y-59817000D01*
X143566250Y-59817000D01*
X143725000Y-59658250D01*
X143728072Y-59094000D01*
X143715812Y-58969518D01*
X143679502Y-58849820D01*
X143620537Y-58739506D01*
X143541185Y-58642815D01*
X143444494Y-58563463D01*
X143334180Y-58504498D01*
X143214482Y-58468188D01*
X143090000Y-58455928D01*
X142525750Y-58459000D01*
X142367000Y-58617750D01*
X142113000Y-58617750D01*
X141954250Y-58459000D01*
X141390000Y-58455928D01*
X141265518Y-58468188D01*
X141145820Y-58504498D01*
X141035506Y-58563463D01*
X140970000Y-58617222D01*
X140904494Y-58563463D01*
X140794180Y-58504498D01*
X140674482Y-58468188D01*
X140550000Y-58455928D01*
X138850000Y-58455928D01*
X138725518Y-58468188D01*
X138605820Y-58504498D01*
X138495506Y-58563463D01*
X138430000Y-58617222D01*
X138364494Y-58563463D01*
X138254180Y-58504498D01*
X138134482Y-58468188D01*
X138010000Y-58455928D01*
X136310000Y-58455928D01*
X136185518Y-58468188D01*
X136065820Y-58504498D01*
X135955506Y-58563463D01*
X135858815Y-58642815D01*
X135779463Y-58739506D01*
X135720498Y-58849820D01*
X135684188Y-58969518D01*
X135671928Y-59094000D01*
X135671928Y-60794000D01*
X135684188Y-60918482D01*
X135720498Y-61038180D01*
X135779463Y-61148494D01*
X135858815Y-61245185D01*
X135955506Y-61324537D01*
X136065820Y-61383502D01*
X136145519Y-61407678D01*
X134058923Y-63494275D01*
X134064072Y-63442001D01*
X134064072Y-62541999D01*
X134047008Y-62368745D01*
X133996472Y-62202149D01*
X133914405Y-62048613D01*
X133803962Y-61914038D01*
X133669387Y-61803595D01*
X133611000Y-61772386D01*
X133611000Y-61671614D01*
X133669387Y-61640405D01*
X133803962Y-61529962D01*
X133914405Y-61395387D01*
X133996472Y-61241851D01*
X134047008Y-61075255D01*
X134064072Y-60902001D01*
X134064072Y-60001999D01*
X134047008Y-59828745D01*
X133996472Y-59662149D01*
X133914405Y-59508613D01*
X133803962Y-59374038D01*
X133669387Y-59263595D01*
X133515851Y-59181528D01*
X133349255Y-59130992D01*
X133176001Y-59113928D01*
X132525999Y-59113928D01*
X132352745Y-59130992D01*
X132186149Y-59181528D01*
X132032613Y-59263595D01*
X131898038Y-59374038D01*
X131826000Y-59461816D01*
X131753962Y-59374038D01*
X131619387Y-59263595D01*
X131465851Y-59181528D01*
X131299255Y-59130992D01*
X131126001Y-59113928D01*
X130475999Y-59113928D01*
X130302745Y-59130992D01*
X130136149Y-59181528D01*
X129982613Y-59263595D01*
X129848038Y-59374038D01*
X129737595Y-59508613D01*
X129655528Y-59662149D01*
X129646473Y-59692000D01*
X129504072Y-59692000D01*
X129504072Y-59629741D01*
X129491812Y-59505259D01*
X129455502Y-59385561D01*
X129396537Y-59275247D01*
X129317185Y-59178556D01*
X129220494Y-59099204D01*
X129110180Y-59040239D01*
X128990482Y-59003929D01*
X128866000Y-58991669D01*
X127166000Y-58991669D01*
X127041518Y-59003929D01*
X126921820Y-59040239D01*
X126811506Y-59099204D01*
X126714815Y-59178556D01*
X126635463Y-59275247D01*
X126576498Y-59385561D01*
X126540188Y-59505259D01*
X126527928Y-59629741D01*
X121716000Y-59629741D01*
X121716000Y-58361344D01*
X149626000Y-58361344D01*
X149626000Y-58732656D01*
X149698439Y-59096834D01*
X149840534Y-59439882D01*
X150046825Y-59748618D01*
X150309382Y-60011175D01*
X150618118Y-60217466D01*
X150961166Y-60359561D01*
X151325344Y-60432000D01*
X151696656Y-60432000D01*
X152060834Y-60359561D01*
X152403882Y-60217466D01*
X152712618Y-60011175D01*
X152975175Y-59748618D01*
X153181466Y-59439882D01*
X153323561Y-59096834D01*
X153396000Y-58732656D01*
X153396000Y-58361344D01*
X153323561Y-57997166D01*
X153181466Y-57654118D01*
X152975175Y-57345382D01*
X152712618Y-57082825D01*
X152403882Y-56876534D01*
X152060834Y-56734439D01*
X151696656Y-56662000D01*
X151325344Y-56662000D01*
X150961166Y-56734439D01*
X150618118Y-56876534D01*
X150309382Y-57082825D01*
X150046825Y-57345382D01*
X149840534Y-57654118D01*
X149698439Y-57997166D01*
X149626000Y-58361344D01*
X121716000Y-58361344D01*
X121716000Y-58073706D01*
X122228969Y-57047767D01*
X122706766Y-56569970D01*
X123732707Y-56057000D01*
X151984294Y-56057000D01*
X153010233Y-56569969D01*
M02*
