G04 #@! TF.GenerationSoftware,KiCad,Pcbnew,5.1.2-f72e74a~84~ubuntu18.04.1*
G04 #@! TF.CreationDate,2019-07-02T23:06:04+08:00*
G04 #@! TF.ProjectId,cs4354-daughterboard,63733433-3534-42d6-9461-756768746572,rev?*
G04 #@! TF.SameCoordinates,Original*
G04 #@! TF.FileFunction,Legend,Bot*
G04 #@! TF.FilePolarity,Positive*
%FSLAX46Y46*%
G04 Gerber Fmt 4.6, Leading zero omitted, Abs format (unit mm)*
G04 Created by KiCad (PCBNEW 5.1.2-f72e74a~84~ubuntu18.04.1) date 2019-07-02 23:06:04*
%MOMM*%
%LPD*%
G04 APERTURE LIST*
%ADD10C,0.120000*%
%ADD11C,0.150000*%
G04 APERTURE END LIST*
D10*
X131564748Y-67362000D02*
X132087252Y-67362000D01*
X131564748Y-68782000D02*
X132087252Y-68782000D01*
X131564748Y-64822000D02*
X132087252Y-64822000D01*
X131564748Y-66242000D02*
X132087252Y-66242000D01*
X131564748Y-62282000D02*
X132087252Y-62282000D01*
X131564748Y-63702000D02*
X132087252Y-63702000D01*
X131564748Y-59742000D02*
X132087252Y-59742000D01*
X131564748Y-61162000D02*
X132087252Y-61162000D01*
D11*
X133111714Y-70429380D02*
X133111714Y-69429380D01*
X132873619Y-69429380D01*
X132730761Y-69477000D01*
X132635523Y-69572238D01*
X132587904Y-69667476D01*
X132540285Y-69857952D01*
X132540285Y-70000809D01*
X132587904Y-70191285D01*
X132635523Y-70286523D01*
X132730761Y-70381761D01*
X132873619Y-70429380D01*
X133111714Y-70429380D01*
X132111714Y-70429380D02*
X132111714Y-69429380D01*
X131540285Y-70429380D01*
X131540285Y-69429380D01*
X131064095Y-70429380D02*
X131064095Y-69429380D01*
X130683142Y-69429380D01*
X130587904Y-69477000D01*
X130540285Y-69524619D01*
X130492666Y-69619857D01*
X130492666Y-69762714D01*
X130540285Y-69857952D01*
X130587904Y-69905571D01*
X130683142Y-69953190D01*
X131064095Y-69953190D01*
X136286714Y-65984380D02*
X136286714Y-64984380D01*
X136048619Y-64984380D01*
X135905761Y-65032000D01*
X135810523Y-65127238D01*
X135762904Y-65222476D01*
X135715285Y-65412952D01*
X135715285Y-65555809D01*
X135762904Y-65746285D01*
X135810523Y-65841523D01*
X135905761Y-65936761D01*
X136048619Y-65984380D01*
X136286714Y-65984380D01*
X135286714Y-65984380D02*
X135286714Y-64984380D01*
X134715285Y-65984380D01*
X134715285Y-64984380D01*
X134239095Y-65984380D02*
X134239095Y-64984380D01*
X133858142Y-64984380D01*
X133762904Y-65032000D01*
X133715285Y-65079619D01*
X133667666Y-65174857D01*
X133667666Y-65317714D01*
X133715285Y-65412952D01*
X133762904Y-65460571D01*
X133858142Y-65508190D01*
X134239095Y-65508190D01*
X136286714Y-63444380D02*
X136286714Y-62444380D01*
X136048619Y-62444380D01*
X135905761Y-62492000D01*
X135810523Y-62587238D01*
X135762904Y-62682476D01*
X135715285Y-62872952D01*
X135715285Y-63015809D01*
X135762904Y-63206285D01*
X135810523Y-63301523D01*
X135905761Y-63396761D01*
X136048619Y-63444380D01*
X136286714Y-63444380D01*
X135286714Y-63444380D02*
X135286714Y-62444380D01*
X134715285Y-63444380D01*
X134715285Y-62444380D01*
X134239095Y-63444380D02*
X134239095Y-62444380D01*
X133858142Y-62444380D01*
X133762904Y-62492000D01*
X133715285Y-62539619D01*
X133667666Y-62634857D01*
X133667666Y-62777714D01*
X133715285Y-62872952D01*
X133762904Y-62920571D01*
X133858142Y-62968190D01*
X134239095Y-62968190D01*
X133111714Y-58999380D02*
X133111714Y-57999380D01*
X132873619Y-57999380D01*
X132730761Y-58047000D01*
X132635523Y-58142238D01*
X132587904Y-58237476D01*
X132540285Y-58427952D01*
X132540285Y-58570809D01*
X132587904Y-58761285D01*
X132635523Y-58856523D01*
X132730761Y-58951761D01*
X132873619Y-58999380D01*
X133111714Y-58999380D01*
X132111714Y-58999380D02*
X132111714Y-57999380D01*
X131540285Y-58999380D01*
X131540285Y-57999380D01*
X131064095Y-58999380D02*
X131064095Y-57999380D01*
X130683142Y-57999380D01*
X130587904Y-58047000D01*
X130540285Y-58094619D01*
X130492666Y-58189857D01*
X130492666Y-58332714D01*
X130540285Y-58427952D01*
X130587904Y-58475571D01*
X130683142Y-58523190D01*
X131064095Y-58523190D01*
M02*
