G04 #@! TF.GenerationSoftware,KiCad,Pcbnew,5.1.2-f72e74a~84~ubuntu18.04.1*
G04 #@! TF.CreationDate,2019-07-02T23:06:04+08:00*
G04 #@! TF.ProjectId,cs4354-daughterboard,63733433-3534-42d6-9461-756768746572,rev?*
G04 #@! TF.SameCoordinates,Original*
G04 #@! TF.FileFunction,Profile,NP*
%FSLAX46Y46*%
G04 Gerber Fmt 4.6, Leading zero omitted, Abs format (unit mm)*
G04 Created by KiCad (PCBNEW 5.1.2-f72e74a~84~ubuntu18.04.1) date 2019-07-02 23:06:04*
%MOMM*%
%LPD*%
G04 APERTURE LIST*
%ADD10C,0.100000*%
G04 APERTURE END LIST*
D10*
X154686000Y-57912000D02*
X154686000Y-58547000D01*
X154051000Y-56642000D02*
X154686000Y-57912000D01*
X153416000Y-56007000D02*
X154051000Y-56642000D01*
X152146000Y-55372000D02*
X153416000Y-56007000D01*
X151511000Y-55372000D02*
X152146000Y-55372000D01*
X154686000Y-72517000D02*
X154686000Y-71882000D01*
X154051000Y-73787000D02*
X154686000Y-72517000D01*
X153416000Y-74422000D02*
X154051000Y-73787000D01*
X152146000Y-75057000D02*
X153416000Y-74422000D01*
X151511000Y-75057000D02*
X152146000Y-75057000D01*
X121031000Y-72517000D02*
X121031000Y-71882000D01*
X121666000Y-73787000D02*
X121031000Y-72517000D01*
X122301000Y-74422000D02*
X121666000Y-73787000D01*
X123571000Y-75057000D02*
X122301000Y-74422000D01*
X124206000Y-75057000D02*
X123571000Y-75057000D01*
X121031000Y-57912000D02*
X121031000Y-58547000D01*
X121666000Y-56642000D02*
X121031000Y-57912000D01*
X122301000Y-56007000D02*
X121666000Y-56642000D01*
X123571000Y-55372000D02*
X122301000Y-56007000D01*
X124206000Y-55372000D02*
X123571000Y-55372000D01*
X124206000Y-75057000D02*
X151511000Y-75057000D01*
X124206000Y-55372000D02*
X151511000Y-55372000D01*
X121031000Y-59182000D02*
X121031000Y-58547000D01*
X154686000Y-58547000D02*
X154686000Y-71882000D01*
X121031000Y-71882000D02*
X121031000Y-59182000D01*
M02*
